<?xml version="1.0" encoding="utf-8"?>
<!-- Generator: Adobe Illustrator 22.0.1, SVG Export Plug-In . SVG Version: 6.00 Build 0)  -->
<svg version="1.1" id="레이어_1" xmlns="http://www.w3.org/2000/svg" xmlns:xlink="http://www.w3.org/1999/xlink" x="0px"
	 y="0px" viewBox="0 0 1250 800" style="enable-background:new 0 0 1250 800;" xml:space="preserve">
<style type="text/css">
	.st0{fill:#5F4B8B;}
	.st1{fill:#4E2D83;}
	.st2{fill:#3E2668;}
	.st3{fill:#240A40;}
	.st4{fill:#361F5A;}
	.st5{fill:#3F1A63;}
	.st6{fill:#1D0A33;}
	.st7{fill:#5B3B8C;}
	.st8{fill:#765EA0;}
	.st9{fill:#A394C2;}
	.st10{fill:#2E174E;}
	.st11{fill:#B3B3B3;}
	.st12{font-family:'Palatino-Roman';}
	.st13{font-size:41.607px;}
	.st14{fill:none;stroke:#999999;stroke-width:3;stroke-miterlimit:10;}
	.st15{fill:#FFFFFF;}
	.st16{font-family:'AvenirNext-Medium';}
	.st17{font-size:132.4345px;}
	.st18{fill:#999999;}
	.st19{font-family:'AvenirNext-Bold';}
	.st20{font-size:132.4351px;}
</style>
<g>
	<polygon class="st0" points="802.6,-20.9 1452.1,623.7 -1073,890 	"/>
</g>
<polygon class="st1" points="991.9,-1060 1243.4,-386.9 827.6,-157.7 "/>
<polygon class="st2" points="992.1,-1059.9 1442.9,-496.9 1243.4,-386.9 "/>
<polygon class="st3" points="992.2,-1059.9 1582.7,-573.9 1443,-496.9 "/>
<polygon class="st1" points="1443,-496.9 1582.3,-573.7 1454.2,-482.9 "/>
<polygon class="st4" points="1454.3,-482.8 1582.7,-573.9 1609.5,-288.9 "/>
<polygon class="st3" points="1609.6,-288.8 1582.8,-573.8 2270.7,536.9 "/>
<polygon class="st5" points="1665.6,307.2 1609.6,-288.7 2271,537.3 "/>
<polygon class="st3" points="1665.7,307.2 2271,537.4 1693,598.3 "/>
<polygon class="st6" points="1693,598.4 2271,537.4 1720.4,889.9 "/>
<polygon class="st4" points="991.9,-1060 827.5,-157.7 -1072.9,889.9 "/>
<polygon class="st1" points="827.5,-157.6 802.6,-21 -1072.3,889.6 "/>
<polygon class="st1" points="-1072.7,890 1452.1,623.8 1720.3,890 "/>
<polygon class="st7" points="1243.5,-386.9 1442.9,-496.8 1454.2,-482.8 1259.2,-344.7 "/>
<polygon class="st8" points="1475.7,234.9 1259.3,-344.6 1454.2,-482.8 1609.5,-288.8 1665.5,307.1 "/>
<polygon class="st9" points="802.7,-21 1259.2,-344.6 1475.7,234.9 "/>
<polygon class="st8" points="827.6,-157.6 1243.4,-386.9 1259.2,-344.6 802.7,-21 "/>
<polygon class="st7" points="1475.8,235 1665.5,307.2 1692.9,598.3 1614.6,606.6 "/>
<polygon class="st10" points="1614.6,606.6 1692.9,598.4 1720.3,889.7 "/>
<polygon class="st4" points="1452.2,623.7 1614.5,606.6 1720.3,889.9 "/>
<polygon class="st8" points="802.8,-20.9 1475.7,235 1614.5,606.6 1452.2,623.7 "/>
<polygon class="st3" points="-2.7,814.4 -42.1,656 1256.4,799.8 "/>
<g>
	<path class="st11" d="M367.3,409.7c0,0,0.9,3.3,3.1,3.3v17.8h11.1v-21.1H367.3z"/>
	<path class="st11" d="M395,409.7c0,0-0.9,3.3-3.1,3.3v17.8h-11.1v-21.1H395z"/>
	<path class="st11" d="M446.9,409.7c0,0,0.9,3.3,3.1,3.3v17.8h11.1v-21.1H446.9z"/>
	<path class="st11" d="M474.7,409.7c0,0-0.9,3.3-3.1,3.3v17.8h-11.1v-21.1H474.7z"/>
	<path class="st11" d="M374.4,408.2h14.2c0,0-0.9-65.9,32.5-65.9v-11.1c0,0-7.5-0.5-16.4,4.1C391.2,342.1,374.3,360.2,374.4,408.2z"
		/>
	<g>
		<path class="st11" d="M467.1,408.2h-14.2c0,0,0.9-65.9-32.5-65.9v-11.1C420.4,331.2,467.3,328.4,467.1,408.2z"/>
	</g>
	<path class="st11" d="M436.5,333.6c0,0-16-9.1-33.4,0.6l17.2-14.7L436.5,333.6z"/>
</g>
<text transform="matrix(1 0 0 1 277.2754 469.7793)" class="st9 st12 st13">Northwestern University</text>
<line class="st14" x1="777.9" y1="438.1" x2="777.9" y2="474.8"/>
<text transform="matrix(1 0 0 1 268.1104 428.4727)" class="st15 st16 st17">K</text>
<text transform="matrix(1 0 0 1 475.623 428.1846)" class="st15 st16 st17">SCON</text>
<g>
	<text transform="matrix(1 0 0 1 857.8652 428.0986)" class="st18 st19 st20">29</text>
</g>
<text transform="matrix(1 0 0 1 808.2158 469.6152)" class="st9 st12 st13">March 2018</text>
</svg>
