<svg id="레이어_1" data-name="레이어 1" xmlns="http://www.w3.org/2000/svg" viewBox="0 0 1920 1080"><defs><style>.cls-1{fill:#5f4b8b;}.cls-2{fill:#a394c2;}.cls-3{fill:#b3b3b3;}.cls-4{fill:#fff;}.cls-5{fill:#999;}.cls-6{fill:#361f5a;}.cls-7{fill:#4e2d83;}.cls-8{fill:#765ea0;}.cls-9{fill:#240a40;}</style></defs><title>KASCON_Logo_PurpleFinalSVG</title><rect class="cls-1" width="1920" height="1080"/><path class="cls-2" d="M491.92,611.86a25.45,25.45,0,0,0-.46-5.75q-.2-.52-2.25-1a14.73,14.73,0,0,0-2.91-.49c-.18,0-.26-.25-.26-.75a1.45,1.45,0,0,1,.26-1l3.4.23q2.55.16,4.31.16t4.28-.2q2.58-.2,3-.2a3.17,3.17,0,0,1,.13,1c0,.52-.09.79-.26.79a16.42,16.42,0,0,0-2.84.52q-2.19.53-2.32,1a26.16,26.16,0,0,0-.52,6.07V637q0,4.05.2,9.15a1.93,1.93,0,0,1-1.24.26,2.82,2.82,0,0,1-2.16-1.5L467,609v27.89a27.52,27.52,0,0,0,.46,6.08q.13.46,2.19.95a15.21,15.21,0,0,0,2.71.49c.13,0,.21.26.23.79a3,3,0,0,1-.1,1.11q-6.53-.33-7.51-.33l-7.51.33a1.55,1.55,0,0,1-.2-1c0-.61.07-.92.2-.92a14.68,14.68,0,0,0,3-.49q2.06-.49,2.25-1.08a19.49,19.49,0,0,0,.65-6.14V611a20,20,0,0,0-.46-4.9q-.2-.52-2.22-.95a16.29,16.29,0,0,0-2.94-.42c-.18,0-.26-.27-.26-.82a1.57,1.57,0,0,1,.26-1.08q5.1.13,6.66.13,3.39,0,5.23-.13,2.42,4.44,22.15,32a15.65,15.65,0,0,0,.2-2.68Z"/><path class="cls-2" d="M518.25,617.55a13.61,13.61,0,0,1,10.06,4.25A14,14,0,0,1,532.49,632a14.37,14.37,0,0,1-4.08,10.29,13.32,13.32,0,0,1-10,4.28,13.63,13.63,0,0,1-10.13-4.28,14.88,14.88,0,0,1-.13-20.54A13.52,13.52,0,0,1,518.25,617.55Zm-.72,2.55a6.61,6.61,0,0,0-5.65,3.17,13.29,13.29,0,0,0-2.19,7.74,15.19,15.19,0,0,0,2.78,9.18Q515.24,644,519,644a6.65,6.65,0,0,0,5.68-3.27,13.6,13.6,0,0,0,2.22-7.84,14.68,14.68,0,0,0-2.81-9Q521.26,620.1,517.53,620.09Z"/><path class="cls-2" d="M552.77,617.55q3.85,0,5.09,1.89a6,6,0,0,1-.72,3.33,2.1,2.1,0,0,1-1.76,1,2.85,2.85,0,0,1-2.16-1.11,3.39,3.39,0,0,0-2.68-1.11,4.41,4.41,0,0,0-3.53,1.9,6.32,6.32,0,0,0-1.5,4v9.8a24.6,24.6,0,0,0,.52,5.81q.13.46,1.73.88a10.29,10.29,0,0,0,2.25.42q.2,0,.26.79a2.72,2.72,0,0,1-.07,1.11q-6.53-.33-7.06-.33t-7.12.33a1.58,1.58,0,0,1-.26-1.08c0-.54.09-.82.26-.82a9.52,9.52,0,0,0,2.32-.42q1.53-.42,1.67-.88a19.8,19.8,0,0,0,.46-4.57V626.17a5.2,5.2,0,0,0-.91-3.53,3.33,3.33,0,0,0-1.6-1.08,5.52,5.52,0,0,0-1.57-.3c-.41,0-.62,0-.62-.13q0-1.57.39-1.63a76.44,76.44,0,0,0,9-1.7l.33-.06c.17,0,.28.19.33.55a2.51,2.51,0,0,1,0,.82l-.39,3.27a13.56,13.56,0,0,1,3.23-3.3A6.82,6.82,0,0,1,552.77,617.55Z"/><path class="cls-2" d="M565.17,621.66h-3.79c-.22,0-.33-.46-.33-1.37a.87.87,0,0,1,.07-.46,12.61,12.61,0,0,0,4.12-3.46,17.5,17.5,0,0,0,1.4-1.93q.69-1.08,1.14-1.86a6.15,6.15,0,0,0,.46-.85q2,0,2,.33v6.47l5.16,0,3.66,0q.52,0,.52.59a5.57,5.57,0,0,1-.65,2.48H570.2v16a6.22,6.22,0,0,0,1.34,4.18,4.38,4.38,0,0,0,3.5,1.57,7.93,7.93,0,0,0,4.05-1.24q.2-.13.59.55t.33.75a10.65,10.65,0,0,1-3,2.06,9.24,9.24,0,0,1-4.18,1,7.46,7.46,0,0,1-5.45-2.16,8.23,8.23,0,0,1-2.19-6.14Z"/><path class="cls-2" d="M602.32,617.48q4.38,0,6.27,3.14t1.9,9.67v7.06a24.28,24.28,0,0,0,.52,5.75q.13.46,1.7.88a9.88,9.88,0,0,0,2.22.42c.13,0,.22.26.26.79a2.72,2.72,0,0,1-.07,1.11q-6.53-.33-7-.33l-6.86.33a1.58,1.58,0,0,1-.26-1.08c0-.54.09-.82.26-.82a8.12,8.12,0,0,0,2.19-.42q1.4-.42,1.54-.88a19.8,19.8,0,0,0,.46-4.57v-6.93q0-6-1.67-8.07a6.57,6.57,0,0,0-9-.52q-1.93,1.54-1.93,2.71v11.56a24.65,24.65,0,0,0,.52,5.81q.13.46,1.7.88a9.88,9.88,0,0,0,2.22.42c.13,0,.22.26.26.79a2.72,2.72,0,0,1-.07,1.11q-6.53-.33-7-.33t-7.12.33a1.57,1.57,0,0,1-.26-1.08c0-.54.09-.82.26-.82a9.53,9.53,0,0,0,2.32-.42q1.53-.42,1.67-.88a19.47,19.47,0,0,0,.46-4.51V610.23a21.29,21.29,0,0,0-.39-4.18q-.33-1-3.33-1h-.59q-.39,0-.39-.72,0-1,.39-1,2-.2,3.63-.52a20.52,20.52,0,0,0,2.61-.65q.95-.33,1.6-.62a5.37,5.37,0,0,0,.91-.49l.33-.2h.13a.7.7,0,0,1,.52.36,1.8,1.8,0,0,1,.33.68,18,18,0,0,0-.72,5.68v14.31c0,.17,0,.26.13.26s.11,0,.2-.13a15.65,15.65,0,0,1,4.08-3A10.64,10.64,0,0,1,602.32,617.48Z"/><path class="cls-2" d="M655.12,621.92q0-2.28-4.31-2.29h-.26q-.26,0-.26-.82a1.58,1.58,0,0,1,.26-1.08l2.19.13L655,618q1,.07,2.19.07t1.93-.07l1.86-.13,2-.13a3.13,3.13,0,0,1,.13,1q0,.91-.33.91a6.79,6.79,0,0,0-2.29.56,3,3,0,0,0-1.89,1.8L650,645.38a1.88,1.88,0,0,1-1.83,1.44c-.44,0-.7-.09-.78-.26l-8-19.21-6.6,18a2.14,2.14,0,0,1-.26.49,2.77,2.77,0,0,1-.62.62,1.44,1.44,0,0,1-.88.33q-.65,0-.78-.26-1.57-3.53-3.56-8.46t-3.76-8.88q-1.76-4-4.12-8.13-.85-1.44-3.53-1.44c-.18,0-.26-.28-.26-.85a1.5,1.5,0,0,1,.26-1l2.16.13,2.16.13q1,.07,2.16.07l6.53-.33a2.62,2.62,0,0,1,.1,1.08q0,.82-.23.82-3.27,0-3.27,1.5a12.37,12.37,0,0,0,.82,2l2.84,6.11q2,4.35,4.12,9,1.11-3.2,2.48-7.05t1.93-5.49a11.53,11.53,0,0,0,.56-1.9,3.24,3.24,0,0,0-.29-1,8.28,8.28,0,0,0-.62-1.24l-.33-.59a2.92,2.92,0,0,0-1.24-1,5,5,0,0,0-2.09-.33q-.26,0-.26-.82a1.58,1.58,0,0,1,.26-1.08l2.12.13,2.09.13q.95.07,2.12.07t2.06-.07l2.19-.13,2.16-.13a3.69,3.69,0,0,1,.13,1.11c0,.48-.07.74-.2.78q-3.14,0-3.14,2.55,0,1.37,7.19,16.07,1-3,2.48-7.25t2.19-6.3A11.14,11.14,0,0,0,655.12,621.92Z"/><path class="cls-2" d="M676.81,617.61a11.7,11.7,0,0,1,5.29,1.14,8.89,8.89,0,0,1,3.5,2.94,13.47,13.47,0,0,1,1.76,3.66,12.88,12.88,0,0,1,.56,3.69q0,1.31-.39,1.6a2.68,2.68,0,0,1-1.5.29H669.55c-.35,0-.52.11-.52.33a12.72,12.72,0,0,0,2.48,7.58,8.29,8.29,0,0,0,7.19,3.46,12.55,12.55,0,0,0,2.61-.26,12.35,12.35,0,0,0,2.12-.62,12.06,12.06,0,0,0,1.5-.72q.62-.36,1.08-.68l.46-.33q.39,0,.39.85a2.33,2.33,0,0,1-.39,1.18,12,12,0,0,1-3.85,3.3,10.91,10.91,0,0,1-5.55,1.47,12.4,12.4,0,0,1-9.31-4.08,13.91,13.91,0,0,1-3.89-10q0-6.86,3.69-10.84A12.07,12.07,0,0,1,676.81,617.61Zm-.65,2.42a5.75,5.75,0,0,0-5.19,2.91,9.83,9.83,0,0,0-1.8,4.8c0,.31.13.46.39.46h12.74q.33,0,.33-.65a9.15,9.15,0,0,0-1.76-4.8A5.39,5.39,0,0,0,676.15,620Z"/><path class="cls-2" d="M702.12,617.55a23.12,23.12,0,0,1,3.63.36l3,.49a37.93,37.93,0,0,1,.78,6.66q0,.33-.85.33t-1-.46a6.82,6.82,0,0,0-1.86-3.46,4.69,4.69,0,0,0-3.5-1.63q-4.7,0-4.7,3.85a5.25,5.25,0,0,0,.26,1.73,3.56,3.56,0,0,0,1,1.44q.75.69,1.14,1a19.39,19.39,0,0,0,1.73,1l1.67.95q.26.13,1.54.88l1.8,1.08q.52.33,1.54,1.11a7.76,7.76,0,0,1,1.47,1.41,8.68,8.68,0,0,1,.88,1.57,4.67,4.67,0,0,1,.42,1.93,8.14,8.14,0,0,1-3,6.43,10.49,10.49,0,0,1-7.06,2.58,17.92,17.92,0,0,1-2.51-.16q-1.14-.16-2.71-.56t-2.42-.52a18.52,18.52,0,0,1-.75-3.27,23.35,23.35,0,0,1-.36-3.53,1.59,1.59,0,0,1,.78-.39c.65,0,1,.13,1,.39a7.21,7.21,0,0,0,2.45,3.82,6.54,6.54,0,0,0,4.47,1.86,5.1,5.1,0,0,0,3.43-1.14,4.1,4.1,0,0,0,1.34-3.3,5,5,0,0,0-.42-2.06,4.58,4.58,0,0,0-1.37-1.7,17,17,0,0,0-1.76-1.24q-.82-.49-2.32-1.27t-2.22-1.24q-5.1-2.94-5.1-7a7,7,0,0,1,2.84-5.75A10.46,10.46,0,0,1,702.12,617.55Z"/><path class="cls-2" d="M718.14,621.66h-3.79c-.22,0-.33-.46-.33-1.37a.87.87,0,0,1,.07-.46,12.61,12.61,0,0,0,4.12-3.46,17.5,17.5,0,0,0,1.4-1.93q.69-1.08,1.14-1.86a6.15,6.15,0,0,0,.46-.85q2,0,2,.33v6.47l5.16,0,3.66,0q.52,0,.52.59a5.57,5.57,0,0,1-.65,2.48h-8.69v16a6.22,6.22,0,0,0,1.34,4.18,4.38,4.38,0,0,0,3.5,1.57,7.93,7.93,0,0,0,4.05-1.24q.2-.13.59.55t.33.75a10.65,10.65,0,0,1-3,2.06,9.24,9.24,0,0,1-4.18,1,7.46,7.46,0,0,1-5.45-2.16,8.23,8.23,0,0,1-2.19-6.14Z"/><path class="cls-2" d="M747.9,617.61a11.7,11.7,0,0,1,5.29,1.14,8.89,8.89,0,0,1,3.5,2.94,13.47,13.47,0,0,1,1.76,3.66A12.88,12.88,0,0,1,759,629q0,1.31-.39,1.6a2.68,2.68,0,0,1-1.5.29H740.65c-.35,0-.52.11-.52.33a12.72,12.72,0,0,0,2.48,7.58,8.29,8.29,0,0,0,7.19,3.46,12.55,12.55,0,0,0,2.61-.26,12.35,12.35,0,0,0,2.12-.62,12.06,12.06,0,0,0,1.5-.72q.62-.36,1.08-.68l.46-.33q.39,0,.39.85a2.33,2.33,0,0,1-.39,1.18,12,12,0,0,1-3.85,3.3,10.91,10.91,0,0,1-5.55,1.47,12.4,12.4,0,0,1-9.31-4.08,13.91,13.91,0,0,1-3.89-10q0-6.86,3.69-10.84A12.07,12.07,0,0,1,747.9,617.61Zm-.65,2.42a5.75,5.75,0,0,0-5.19,2.91,9.83,9.83,0,0,0-1.8,4.8c0,.31.13.46.39.46h12.74q.33,0,.33-.65a9.15,9.15,0,0,0-1.76-4.8A5.39,5.39,0,0,0,747.25,620Z"/><path class="cls-2" d="M779.07,617.55q3.85,0,5.09,1.89a6,6,0,0,1-.72,3.33,2.1,2.1,0,0,1-1.76,1,2.85,2.85,0,0,1-2.16-1.11,3.39,3.39,0,0,0-2.68-1.11,4.41,4.41,0,0,0-3.53,1.9,6.32,6.32,0,0,0-1.5,4v9.8a24.6,24.6,0,0,0,.52,5.81q.13.46,1.73.88a10.29,10.29,0,0,0,2.25.42q.2,0,.26.79a2.72,2.72,0,0,1-.07,1.11Q770,646,769.47,646t-7.12.33a1.58,1.58,0,0,1-.26-1.08c0-.54.09-.82.26-.82a9.52,9.52,0,0,0,2.32-.42q1.53-.42,1.67-.88a19.8,19.8,0,0,0,.46-4.57V626.17a5.2,5.2,0,0,0-.91-3.53,3.33,3.33,0,0,0-1.6-1.08,5.52,5.52,0,0,0-1.57-.3c-.41,0-.62,0-.62-.13q0-1.57.39-1.63a76.44,76.44,0,0,0,9-1.7l.33-.06c.17,0,.28.19.33.55a2.51,2.51,0,0,1,0,.82l-.39,3.27a13.56,13.56,0,0,1,3.23-3.3A6.82,6.82,0,0,1,779.07,617.55Z"/><path class="cls-2" d="M806.86,617.48q4.57,0,6.4,3.27t1.83,10.58v5.94a24.6,24.6,0,0,0,.52,5.81q.13.46,1.7.88a9.89,9.89,0,0,0,2.22.42c.13,0,.22.26.26.79a2.71,2.71,0,0,1-.07,1.11q-6.53-.33-7-.33l-6.86.33a1.57,1.57,0,0,1-.26-1.08c0-.54.09-.82.26-.82a8.11,8.11,0,0,0,2.19-.42q1.4-.42,1.54-.88a19.8,19.8,0,0,0,.46-4.57V632q0-6.08-1.57-8.3t-5.09-2.22a6.38,6.38,0,0,0-4,1.54q-1.93,1.54-1.93,2.78v11.5a24.6,24.6,0,0,0,.52,5.81q.13.46,1.7.88a9.89,9.89,0,0,0,2.22.42q.2,0,.26.79a2.72,2.72,0,0,1-.07,1.11q-6.53-.33-7-.33t-7.12.33a1.58,1.58,0,0,1-.26-1.08c0-.54.09-.82.26-.82a9.52,9.52,0,0,0,2.32-.42q1.53-.42,1.67-.88a19.76,19.76,0,0,0,.46-4.57V626.17a5.2,5.2,0,0,0-.91-3.53,3.33,3.33,0,0,0-1.6-1.08,5.52,5.52,0,0,0-1.57-.3c-.41,0-.62,0-.62-.13q0-1.57.39-1.63a76.44,76.44,0,0,0,9-1.7l.33-.06c.17,0,.28.19.33.55a2.51,2.51,0,0,1,0,.82,21.22,21.22,0,0,0-.26,2.61c0,.17,0,.26.13.26s.11,0,.2-.13a16.6,16.6,0,0,1,4.08-3A10.34,10.34,0,0,1,806.86,617.48Z"/><path class="cls-2" d="M847.18,603.17q1,0,7.58-.33a2.9,2.9,0,0,1,.13.92c0,.65-.09,1-.26,1a10.93,10.93,0,0,0-2.35.46q-1.7.46-1.83.92a25.27,25.27,0,0,0-.59,6.07v14.57q0,7.38,3.14,11.76a10.28,10.28,0,0,0,8.88,4.38q11.17,0,11.17-14.7V611.86a25.51,25.51,0,0,0-.46-5.75q-.2-.52-2.25-1a14.73,14.73,0,0,0-2.91-.49q-.26,0-.26-.75a1.45,1.45,0,0,1,.26-1l3.4.23q2.55.16,4.31.16t4.28-.2q2.58-.2,3-.2a3.14,3.14,0,0,1,.13,1c0,.52-.09.79-.26.79a16.42,16.42,0,0,0-2.84.52q-2.19.53-2.32,1a26.11,26.11,0,0,0-.52,6.07v15.87q0,10.13-4.25,14.08t-12.09,4q-7.78,0-12-4.57t-4.18-14.77V611.93a25.87,25.87,0,0,0-.46-5.81q-.2-.52-1.86-.95a11.23,11.23,0,0,0-2.52-.42q-.26,0-.26-.85a1.51,1.51,0,0,1,.26-1Z"/><path class="cls-2" d="M902.7,617.48q4.57,0,6.4,3.27t1.83,10.58v5.94a24.6,24.6,0,0,0,.52,5.81q.13.46,1.7.88a9.89,9.89,0,0,0,2.22.42c.13,0,.22.26.26.79a2.71,2.71,0,0,1-.07,1.11q-6.53-.33-7-.33l-6.86.33a1.57,1.57,0,0,1-.26-1.08c0-.54.09-.82.26-.82a8.11,8.11,0,0,0,2.19-.42q1.4-.42,1.54-.88a19.8,19.8,0,0,0,.46-4.57V632q0-6.08-1.57-8.3t-5.09-2.22a6.38,6.38,0,0,0-4,1.54q-1.93,1.54-1.93,2.78v11.5a24.6,24.6,0,0,0,.52,5.81q.13.46,1.7.88a9.89,9.89,0,0,0,2.22.42q.2,0,.26.79a2.72,2.72,0,0,1-.07,1.11q-6.53-.33-7-.33t-7.12.33a1.58,1.58,0,0,1-.26-1.08c0-.54.09-.82.26-.82a9.52,9.52,0,0,0,2.32-.42q1.53-.42,1.67-.88a19.76,19.76,0,0,0,.46-4.57V626.17a5.2,5.2,0,0,0-.91-3.53,3.33,3.33,0,0,0-1.6-1.08,5.52,5.52,0,0,0-1.57-.3c-.41,0-.62,0-.62-.13q0-1.57.39-1.63a76.44,76.44,0,0,0,9-1.7l.33-.06c.17,0,.28.19.33.55a2.51,2.51,0,0,1,0,.82,21.22,21.22,0,0,0-.26,2.61c0,.17,0,.26.13.26s.11,0,.2-.13a16.6,16.6,0,0,1,4.08-3A10.34,10.34,0,0,1,902.7,617.48Z"/><path class="cls-2" d="M929.46,637.28a24.65,24.65,0,0,0,.52,5.81q.13.46,1.7.88a9.88,9.88,0,0,0,2.22.42c.13,0,.22.26.26.79a2.72,2.72,0,0,1-.07,1.11q-6.53-.33-7-.33t-7.12.33a1.57,1.57,0,0,1-.26-1.08c0-.54.09-.82.26-.82a9.53,9.53,0,0,0,2.32-.42q1.53-.42,1.67-.88a19.8,19.8,0,0,0,.46-4.57V626.17a5.2,5.2,0,0,0-.91-3.53,3.33,3.33,0,0,0-1.6-1.08,5.52,5.52,0,0,0-1.57-.3c-.41,0-.62,0-.62-.13q0-1.57.39-1.63a76.44,76.44,0,0,0,9-1.7l.13-.06h.2c.17,0,.28.19.33.55a2.55,2.55,0,0,1,0,.82,38.22,38.22,0,0,0-.33,4.7Zm-5.32-27.6a3.31,3.31,0,1,1,2.32.95A3.15,3.15,0,0,1,924.13,609.68Z"/><path class="cls-2" d="M959.84,621.73q0-2.09-4.7-2.09c-.18,0-.26-.27-.26-.82a1.57,1.57,0,0,1,.26-1.08l2.68.19q2,.13,3.53.13l6.53-.33a3.13,3.13,0,0,1,.13,1q0,.91-.46.91a7.8,7.8,0,0,0-2.42.52,3.22,3.22,0,0,0-2,1.7l-10.39,23.45a2.16,2.16,0,0,1-.78,1,1.94,1.94,0,0,1-1.11.52c-.3,0-.5-.09-.59-.26q-1.11-2.42-4.87-11.24t-6.57-14.37q-.65-1.3-3.85-1.31-.26,0-.26-.85a1.51,1.51,0,0,1,.26-1l6.79.33,6.53-.33a2.25,2.25,0,0,1,0,1.08c-.07.54-.16.82-.29.82q-3.2,0-3.2,1.11a.57.57,0,0,0,.07.26l7.84,17.7,6.6-15A5.46,5.46,0,0,0,959.84,621.73Z"/><path class="cls-2" d="M981.58,617.61a11.7,11.7,0,0,1,5.29,1.14,8.89,8.89,0,0,1,3.5,2.94,13.47,13.47,0,0,1,1.76,3.66,12.88,12.88,0,0,1,.56,3.69q0,1.31-.39,1.6a2.68,2.68,0,0,1-1.5.29H974.32c-.35,0-.52.11-.52.33a12.72,12.72,0,0,0,2.48,7.58,8.29,8.29,0,0,0,7.19,3.46,12.55,12.55,0,0,0,2.61-.26,12.35,12.35,0,0,0,2.12-.62,12.06,12.06,0,0,0,1.5-.72q.62-.36,1.08-.68l.46-.33q.39,0,.39.85a2.33,2.33,0,0,1-.39,1.18,12,12,0,0,1-3.85,3.3,10.91,10.91,0,0,1-5.55,1.47,12.4,12.4,0,0,1-9.31-4.08,13.91,13.91,0,0,1-3.89-10q0-6.86,3.69-10.84A12.07,12.07,0,0,1,981.58,617.61Zm-.65,2.42a5.75,5.75,0,0,0-5.19,2.91,9.83,9.83,0,0,0-1.8,4.8c0,.31.13.46.39.46h12.74q.33,0,.33-.65a9.15,9.15,0,0,0-1.76-4.8A5.39,5.39,0,0,0,980.92,620Z"/><path class="cls-2" d="M1012.74,617.55q3.85,0,5.09,1.89a6,6,0,0,1-.72,3.33,2.1,2.1,0,0,1-1.76,1,2.85,2.85,0,0,1-2.16-1.11,3.39,3.39,0,0,0-2.68-1.11,4.41,4.41,0,0,0-3.53,1.9,6.32,6.32,0,0,0-1.5,4v9.8a24.6,24.6,0,0,0,.52,5.81q.13.46,1.73.88a10.29,10.29,0,0,0,2.25.42q.2,0,.26.79a2.72,2.72,0,0,1-.07,1.11q-6.53-.33-7.06-.33t-7.12.33a1.58,1.58,0,0,1-.26-1.08c0-.54.09-.82.26-.82a9.52,9.52,0,0,0,2.32-.42q1.53-.42,1.67-.88a19.8,19.8,0,0,0,.46-4.57V626.17a5.2,5.2,0,0,0-.91-3.53,3.33,3.33,0,0,0-1.6-1.08,5.52,5.52,0,0,0-1.57-.3c-.41,0-.62,0-.62-.13q0-1.57.39-1.63a76.44,76.44,0,0,0,9-1.7l.33-.06c.17,0,.28.19.33.55a2.51,2.51,0,0,1,0,.82l-.39,3.27a13.56,13.56,0,0,1,3.23-3.3A6.82,6.82,0,0,1,1012.74,617.55Z"/><path class="cls-2" d="M1031.06,617.55a23.13,23.13,0,0,1,3.63.36l3,.49a37.93,37.93,0,0,1,.78,6.66q0,.33-.85.33t-1-.46a6.82,6.82,0,0,0-1.86-3.46,4.69,4.69,0,0,0-3.5-1.63q-4.71,0-4.7,3.85a5.25,5.25,0,0,0,.26,1.73,3.55,3.55,0,0,0,1,1.44q.75.69,1.14,1a19.45,19.45,0,0,0,1.73,1l1.66.95c.17.09.69.38,1.54.88l1.8,1.08q.52.33,1.54,1.11a7.71,7.71,0,0,1,1.47,1.41,8.59,8.59,0,0,1,.88,1.57,4.67,4.67,0,0,1,.42,1.93,8.14,8.14,0,0,1-3,6.43,10.49,10.49,0,0,1-7.06,2.58,17.88,17.88,0,0,1-2.51-.16q-1.14-.16-2.71-.56t-2.42-.52a18.58,18.58,0,0,1-.75-3.27,23.44,23.44,0,0,1-.36-3.53,1.59,1.59,0,0,1,.78-.39c.65,0,1,.13,1,.39a7.22,7.22,0,0,0,2.45,3.82,6.54,6.54,0,0,0,4.47,1.86,5.11,5.11,0,0,0,3.43-1.14,4.1,4.1,0,0,0,1.34-3.3,5,5,0,0,0-.42-2.06,4.56,4.56,0,0,0-1.37-1.7,16.88,16.88,0,0,0-1.76-1.24q-.82-.49-2.32-1.27t-2.22-1.24q-5.1-2.94-5.1-7a7,7,0,0,1,2.84-5.75A10.46,10.46,0,0,1,1031.06,617.55Z"/><path class="cls-2" d="M1053.16,637.28a24.64,24.64,0,0,0,.52,5.81c.09.3.65.6,1.7.88a9.87,9.87,0,0,0,2.22.42q.2,0,.26.79a2.68,2.68,0,0,1-.07,1.11q-6.53-.33-7-.33t-7.12.33a1.57,1.57,0,0,1-.26-1.08c0-.54.09-.82.26-.82A9.52,9.52,0,0,0,1046,644q1.54-.42,1.67-.88a19.86,19.86,0,0,0,.46-4.57V626.17a5.2,5.2,0,0,0-.91-3.53,3.33,3.33,0,0,0-1.6-1.08,5.52,5.52,0,0,0-1.57-.3c-.41,0-.62,0-.62-.13q0-1.57.39-1.63a76.44,76.44,0,0,0,9-1.7l.13-.06h.19c.17,0,.28.19.33.55a2.46,2.46,0,0,1,0,.82,38.53,38.53,0,0,0-.33,4.7Zm-5.32-27.6a3.31,3.31,0,1,1,2.32.95A3.15,3.15,0,0,1,1047.83,609.68Z"/><path class="cls-2" d="M1063.12,621.66h-3.79c-.22,0-.33-.46-.33-1.37a.87.87,0,0,1,.06-.46,12.61,12.61,0,0,0,4.12-3.46,17.3,17.3,0,0,0,1.4-1.93q.69-1.08,1.14-1.86a6.26,6.26,0,0,0,.46-.85q2,0,2,.33v6.47l5.16,0,3.66,0q.52,0,.52.59a5.57,5.57,0,0,1-.65,2.48h-8.69v16a6.22,6.22,0,0,0,1.34,4.18,4.38,4.38,0,0,0,3.5,1.57,7.93,7.93,0,0,0,4.05-1.24q.2-.13.59.55c.26.46.37.71.33.75a10.66,10.66,0,0,1-3,2.06,9.25,9.25,0,0,1-4.18,1,7.46,7.46,0,0,1-5.45-2.16,8.23,8.23,0,0,1-2.19-6.14Z"/><path class="cls-2" d="M1087.68,618.07c.74,0,1.43,0,2.06-.07l2.16-.13,2.12-.13a3.16,3.16,0,0,1,.13,1c0,.61-.09.91-.26.91a5.79,5.79,0,0,0-1.73.46q-1.21.46-1.34.92v.13q0,1.18,7,17.05l5-14.31a7.28,7.28,0,0,0,.46-2,1.84,1.84,0,0,0-1-1.6,5.17,5.17,0,0,0-2.71-.62q-.26,0-.26-.85a1.51,1.51,0,0,1,.26-1l2.55.19q1.7.13,3.27.13t3.14-.13l2.55-.19a3.16,3.16,0,0,1,.13,1c0,.61-.09.91-.26.91a6.74,6.74,0,0,0-2.32.59,3.13,3.13,0,0,0-1.93,1.89l-11.69,31.55a13.55,13.55,0,0,1-3.4,5.65,5.61,5.61,0,0,1-3.46,1.6,2.39,2.39,0,0,1-2-.85,2.79,2.79,0,0,1-.65-1.7,2.38,2.38,0,0,1,.92-2.09q5.42,0,7.18-5.62l.79-2.35q.45-1.37.72-2.22l-9.34-22.86a9.28,9.28,0,0,0-1.31-2.22,4.45,4.45,0,0,0-1.8-1,6.63,6.63,0,0,0-1.93-.39c-.18,0-.26-.28-.26-.85a1.5,1.5,0,0,1,.26-1Q1087.35,618.07,1087.68,618.07Z"/><path class="cls-2" d="M1136.23,653q0,.33-1.73.72a14.86,14.86,0,0,1-2.12.39c-.22,0-.33-.18-.33-.52v-57a.43.43,0,0,1,.33-.52,11.62,11.62,0,0,1,3.27-.46.65.65,0,0,1,.39.1c.09.06.13.12.13.16v.13Z"/><path class="cls-2" d="M1169.3,603.17q2.42,0,6-.33.46,1.5,12.93,32.73a.26.26,0,0,0,.26.13.31.31,0,0,0,.33-.26q6.4-15,10.19-24.76l2.61-7.84q4.18.26,5.42.26,4.05,0,7.32-.26a3.2,3.2,0,0,1,.2,1c0,.61-.11.92-.33.92h-.13a5.91,5.91,0,0,0-1.89.42,6.62,6.62,0,0,0-1.76.88q-.78.59-.78,4.38,0,1,.59,26.52a17.23,17.23,0,0,0,1,6q.26.59,2,1a11.51,11.51,0,0,0,2.42.42c.17,0,.26.31.26.92a3.12,3.12,0,0,1-.13,1q-6.53-.33-7.77-.33l-7.84.33a1.51,1.51,0,0,1-.26-1c0-.57.09-.85.26-.85a9.35,9.35,0,0,0,2-.33,8.3,8.3,0,0,0,1.93-.65q.78-.46.78-2.81v-3.46l-.78-23a17.59,17.59,0,0,0-.36-2.45q-.29-1.4-.62-1.41c-.09,0-.19.15-.33.46l-13.65,32.66q-1.24,2.81-2.42,2.81a2.1,2.1,0,0,1-.59-.13l-15-38q-.13,6.27-.39,14.37t-.46,13.36q-.2,5.26-.2,5.39a2.86,2.86,0,0,0,.39,1.7,4.78,4.78,0,0,0,2.38,1,14.19,14.19,0,0,0,2.64.49q.26,0,.26,1a2.92,2.92,0,0,1-.13.92q-6.53-.33-7.58-.33l-7.64.33a1.32,1.32,0,0,1-.33-1c0-.61.11-.92.33-.92a12.87,12.87,0,0,0,2.71-.42,5.24,5.24,0,0,0,2.38-1q1-1.18,1.18-5.68.13-6.79.29-13.39t.29-10.35q.13-3.76.13-4.8a10.49,10.49,0,0,0-.26-2.61q-.2-.52-2.22-.95a16.29,16.29,0,0,0-2.94-.42c-.18,0-.26-.3-.26-.92a1.38,1.38,0,0,1,.26-1l2.45.13,2.45.13C1167.62,603.15,1168.43,603.17,1169.3,603.17Z"/><path class="cls-2" d="M1232.95,617.61q3.59,0,5.16,1.73t1.57,5.58V640a3.59,3.59,0,0,0,.72,2.29,2.35,2.35,0,0,0,2,.91,4.44,4.44,0,0,0,2.29-.91c.17,0,.26.17.26.52a2.55,2.55,0,0,1-.33,1.37q-2.68,2.29-4.57,2.29a4.25,4.25,0,0,1-2.87-1.24,6.87,6.87,0,0,1-1.9-2.61,2,2,0,0,0-.49.42,11.81,11.81,0,0,1-1.14,1,20,20,0,0,1-1.67,1.14,9.57,9.57,0,0,1-2.22,1,8.74,8.74,0,0,1-2.58.39,7.59,7.59,0,0,1-5-1.6,5.83,5.83,0,0,1-2-4.8,5.42,5.42,0,0,1,.72-2.71,7.41,7.41,0,0,1,1.7-2.09,13.94,13.94,0,0,1,2.68-1.67,26.26,26.26,0,0,1,2.91-1.27l3.17-1.08q2-.65,2.74-1a.91.91,0,0,0,.59-1v-4.9a4.07,4.07,0,0,0-1.31-3.23,4.61,4.61,0,0,0-3.14-1.14,4.38,4.38,0,0,0-3.27,1.34,4.79,4.79,0,0,0-1.31,3.5q0,2.29-2.68,2.29a2.69,2.69,0,0,1-2.55-1.24q0-2.81,4.12-5.58A14.82,14.82,0,0,1,1232.95,617.61Zm-6.14,24.27a4.27,4.27,0,0,0,2.87.95,6.07,6.07,0,0,0,3.4-1.08q1.63-1.08,1.63-2.19v-6.73a24.26,24.26,0,0,1-2.55.91q-2,.65-3.17,1.14a6.78,6.78,0,0,0-2.22,1.63,3.74,3.74,0,0,0-1.08,2.65A3.36,3.36,0,0,0,1226.8,641.88Z"/><path class="cls-2" d="M1265.44,617.55q3.85,0,5.09,1.89a6,6,0,0,1-.72,3.33,2.1,2.1,0,0,1-1.76,1,2.85,2.85,0,0,1-2.16-1.11,3.39,3.39,0,0,0-2.68-1.11,4.41,4.41,0,0,0-3.53,1.9,6.33,6.33,0,0,0-1.5,4v9.8a24.64,24.64,0,0,0,.52,5.81q.13.46,1.73.88a10.29,10.29,0,0,0,2.25.42c.13,0,.22.26.26.79a2.73,2.73,0,0,1-.07,1.11q-6.53-.33-7.05-.33t-7.12.33a1.58,1.58,0,0,1-.26-1.08c0-.54.09-.82.26-.82A9.54,9.54,0,0,0,1251,644q1.53-.42,1.66-.88a19.75,19.75,0,0,0,.46-4.57V626.17a5.2,5.2,0,0,0-.92-3.53,3.32,3.32,0,0,0-1.6-1.08,5.52,5.52,0,0,0-1.57-.3c-.41,0-.62,0-.62-.13q0-1.57.39-1.63a76.46,76.46,0,0,0,9-1.7l.33-.06c.17,0,.28.19.33.55a2.55,2.55,0,0,1,0,.82l-.39,3.27a13.59,13.59,0,0,1,3.23-3.3A6.83,6.83,0,0,1,1265.44,617.55Z"/><path class="cls-2" d="M1285.63,617.61q7.19,0,9.93,3.33,0,4.38-2.42,4.38a2.59,2.59,0,0,1-1.7-.49,9.75,9.75,0,0,1-1.5-1.8q-2-3-4.83-3a6.36,6.36,0,0,0-4.87,2.55q-2.19,2.55-2.19,7.58a14.14,14.14,0,0,0,2.58,8.69,8.42,8.42,0,0,0,7.15,3.46,12.56,12.56,0,0,0,2.61-.26,12.38,12.38,0,0,0,2.12-.62,12.13,12.13,0,0,0,1.5-.72q.62-.36,1.08-.68l.46-.33q.39,0,.39.85a2.33,2.33,0,0,1-.39,1.18,12,12,0,0,1-3.85,3.3,10.91,10.91,0,0,1-5.55,1.47,12.4,12.4,0,0,1-9.31-4.08,13.9,13.9,0,0,1-3.89-10,17,17,0,0,1,3.27-10.42Q1279.49,617.61,1285.63,617.61Z"/><path class="cls-2" d="M1317.59,617.48q4.38,0,6.27,3.14t1.89,9.67v7.06a24.27,24.27,0,0,0,.52,5.75q.13.46,1.7.88a9.89,9.89,0,0,0,2.22.42q.2,0,.26.79a2.7,2.7,0,0,1-.07,1.11q-6.53-.33-7-.33l-6.86.33a1.58,1.58,0,0,1-.26-1.08c0-.54.09-.82.26-.82a8.12,8.12,0,0,0,2.19-.42q1.4-.42,1.53-.88a19.75,19.75,0,0,0,.46-4.57v-6.93q0-6-1.67-8.07a6.57,6.57,0,0,0-9-.52q-1.93,1.54-1.93,2.71v11.56a24.64,24.64,0,0,0,.52,5.81q.13.46,1.7.88a9.89,9.89,0,0,0,2.22.42q.2,0,.26.79a2.7,2.7,0,0,1-.07,1.11q-6.53-.33-7-.33t-7.12.33a1.58,1.58,0,0,1-.26-1.08c0-.54.09-.82.26-.82A9.52,9.52,0,0,0,1301,644q1.54-.42,1.67-.88a19.42,19.42,0,0,0,.46-4.51V610.23a21.35,21.35,0,0,0-.39-4.18q-.33-1-3.33-1h-.59q-.39,0-.39-.72,0-1,.39-1,2-.2,3.63-.52a20.49,20.49,0,0,0,2.61-.65q.95-.33,1.6-.62a5.36,5.36,0,0,0,.92-.49l.33-.2h.13a.7.7,0,0,1,.52.36,1.78,1.78,0,0,1,.33.68,18,18,0,0,0-.72,5.68v14.31c0,.17,0,.26.13.26s.11,0,.19-.13a15.66,15.66,0,0,1,4.08-3A10.64,10.64,0,0,1,1317.59,617.48Z"/><path class="cls-2" d="M1364.19,604.15a8.23,8.23,0,0,1,6.89,3.27,11.8,11.8,0,0,1,2.52,7.38,16.56,16.56,0,0,1-.82,5,22,22,0,0,1-2.55,5.26q-1.73,2.68-3.14,4.67a42.44,42.44,0,0,1-3.89,4.61l-3.43,3.59q-.95,1-3,3c-.13.22-.09.37.13.46h12.61a3.15,3.15,0,0,0,2.65-1,12.91,12.91,0,0,0,1.67-4,.94.94,0,0,1,.91-.72,2,2,0,0,1,1.18.26q-1.57,7.84-1.76,9.15a1.14,1.14,0,0,1-1.31,1h-21.43q-.26,0-.49-.75a4.39,4.39,0,0,1-.23-1.21,97.1,97.1,0,0,0,12.22-14.93q5.1-7.74,5.1-13.1a7.79,7.79,0,0,0-1.76-5.45,6,6,0,0,0-4.64-1.93q-5.42,0-8.69,5.42a1.2,1.2,0,0,1-.82-.42q-.42-.42-.42-.62a7.72,7.72,0,0,1,1.08-2.12,24.07,24.07,0,0,1,2.35-2.94,12.32,12.32,0,0,1,3.92-2.74A12.14,12.14,0,0,1,1364.19,604.15Z"/><path class="cls-2" d="M1380.92,625.26q0-8.88,3.85-15t10.39-6.07q6.6,0,10.42,6t3.82,15q0,8.89-3.85,15t-10.39,6.08q-6.47,0-10.35-6.11T1380.92,625.26Zm5.75-.06a33.89,33.89,0,0,0,2.29,13.23q2.29,5.39,5.88,5.39,4.18,0,6.5-5.42a34.5,34.5,0,0,0,2.32-13.52,32.26,32.26,0,0,0-2.29-13q-2.29-5.19-5.88-5.19-4,0-6.4,5.29A31.77,31.77,0,0,0,1386.67,625.19Z"/><path class="cls-2" d="M1416.79,613.69a2.27,2.27,0,0,1-.79-.75,1.72,1.72,0,0,1-.39-.88.53.53,0,0,1,.13-.39q11-7.51,11.3-7.51h.13q.52,0,.78,1.24a22.29,22.29,0,0,0-.65,6.14v25.74a24.64,24.64,0,0,0,.52,5.81q.13.46,1.93.88a12.93,12.93,0,0,0,2.45.42c.17,0,.26.39.26,1.18a2.28,2.28,0,0,1-.06.72q-6.53-.33-7.91-.33-1,0-7.58.33a1.58,1.58,0,0,1-.26-1.08c0-.54.09-.82.26-.82a12.83,12.83,0,0,0,2.65-.42q1.79-.42,1.93-.88a15.46,15.46,0,0,0,.39-3.72V615.85a23.67,23.67,0,0,0-.13-2.87,3.43,3.43,0,0,0-.3-1.21.56.56,0,0,0-.49-.23,2.79,2.79,0,0,0-1.14.39q-.75.39-1.73,1Z"/><path class="cls-2" d="M1452,604.09a11.17,11.17,0,0,1,7.61,2.71,9.12,9.12,0,0,1,3.1,7.22q0,5-7.32,9.6-.46.13,0,.39a23.3,23.3,0,0,1,6,4.93,9.42,9.42,0,0,1,2.58,6.24,10.51,10.51,0,0,1-3.76,8.17,13.8,13.8,0,0,1-17.51.39,9.74,9.74,0,0,1-3.36-7.71,7.13,7.13,0,0,1,.2-1.67,15.26,15.26,0,0,1,.42-1.47,6,6,0,0,1,.75-1.4q.52-.75.88-1.24a8.17,8.17,0,0,1,1.08-1.14l1-.95a13,13,0,0,1,1.18-.88l1.08-.75,1-.69.85-.52q.33-.2,0-.39a16,16,0,0,1-4.61-4.21,9.66,9.66,0,0,1-2.06-6,10.15,10.15,0,0,1,3.27-7.42A10.44,10.44,0,0,1,1452,604.09Zm-.39,40.24a6.84,6.84,0,0,0,5.16-2,7.69,7.69,0,0,0,.79-9,13.08,13.08,0,0,0-2.81-3.3q-1.7-1.44-2.65-2.09a19.48,19.48,0,0,0-1.8-1.11,1,1,0,0,0-.39-.13.38.38,0,0,0-.26.06,11.14,11.14,0,0,0-4,3.82,10.49,10.49,0,0,0-1.21,5.26,8.73,8.73,0,0,0,2.16,6.14A6.57,6.57,0,0,0,1451.63,644.33Zm0-38a4.88,4.88,0,0,0-4,2.09A8.78,8.78,0,0,0,1446,614q0,4.44,6.79,8.36a1,1,0,0,0,.39.13.7.7,0,0,0,.39-.13,9.37,9.37,0,0,0,2.65-13.49A5.49,5.49,0,0,0,1451.63,606.38Z"/><path class="cls-3" d="M573.31,549s1.3,4.56,4.24,4.56V578h15.32V549Z"/><path class="cls-3" d="M611.48,549s-1.3,4.56-4.24,4.56V578H591.92V549Z"/><path class="cls-3" d="M682.84,549s1.3,4.56,4.24,4.56V578H702.4V549Z"/><path class="cls-3" d="M721,549s-1.3,4.56-4.24,4.56V578H701.45V549Z"/><path class="cls-3" d="M583.09,547h19.56s-1.3-90.62,44.66-90.62V441.11s-10.25-.62-22.56,5.58C606.17,456.05,582.9,481,583.09,547Z"/><path class="cls-3" d="M710.57,547H691s1.3-90.62-44.66-90.62V441.11S710.9,437.2,710.57,547Z"/><path class="cls-3" d="M668.52,444.38s-22-12.57-45.88.8L646.36,425Z"/><path class="cls-4" d="M475.13,504.49h.37l58.35-57.62h25.3l-63.53,59.83L563,577.62H536.8L475.49,510h-.37v67.59H456.84V446.88h18.28Z"/><path class="cls-4" d="M805.64,471.07a29.17,29.17,0,0,0-10.53-8.77,32.26,32.26,0,0,0-15-3.42,34.85,34.85,0,0,0-9,1.2A24.67,24.67,0,0,0,763,464a21.4,21.4,0,0,0-6,6.65,18.59,18.59,0,0,0-2.31,9.51,17.36,17.36,0,0,0,2.12,9,19.25,19.25,0,0,0,5.72,6.09,36.45,36.45,0,0,0,8.49,4.25q4.89,1.76,10.43,3.6,6.65,2,13.48,4.62a48.43,48.43,0,0,1,12.37,6.83,33.69,33.69,0,0,1,9,10.62q3.51,6.37,3.51,16.16a38.61,38.61,0,0,1-3.79,17.64A36.11,36.11,0,0,1,806,571.25a42.83,42.83,0,0,1-14.5,7.29,60,60,0,0,1-16.9,2.4,61.68,61.68,0,0,1-23.91-4.8,47.45,47.45,0,0,1-19.11-14.22l14.22-12A34.76,34.76,0,0,0,758.18,561a34.75,34.75,0,0,0,26,3,26,26,0,0,0,8.4-4.06,22.33,22.33,0,0,0,6.19-6.92,19.83,19.83,0,0,0,2.4-10.06,18.26,18.26,0,0,0-2.49-9.88,22,22,0,0,0-6.74-6.74,44.64,44.64,0,0,0-9.88-4.71q-5.64-1.94-11.91-4a102.35,102.35,0,0,1-12.37-4.52,42.81,42.81,0,0,1-10.9-6.83A31.53,31.53,0,0,1,739.16,496q-3-6.09-3-15.14a33.59,33.59,0,0,1,4-16.8,36.18,36.18,0,0,1,10.34-11.63,43.1,43.1,0,0,1,14.4-6.74,63.06,63.06,0,0,1,16.16-2.12,56.27,56.27,0,0,1,21.42,4.06,42.68,42.68,0,0,1,16.07,10.9Z"/><path class="cls-4" d="M952.32,557.31a58.68,58.68,0,0,1-20.13,17.08q-12.37,6.55-29.73,6.56a73.46,73.46,0,0,1-27.61-5.08,64.26,64.26,0,0,1-21.79-14.22,65.38,65.38,0,0,1-14.31-21.79,77.13,77.13,0,0,1,.09-55.77,63.23,63.23,0,0,1,14.59-21.61,66.38,66.38,0,0,1,22.07-13.94,75.36,75.36,0,0,1,27.7-5,72.57,72.57,0,0,1,13.48,1.29,67.28,67.28,0,0,1,13.11,3.88,54.51,54.51,0,0,1,11.45,6.37,41.45,41.45,0,0,1,8.86,8.77l-14.4,11.08a36,36,0,0,0-13.57-11,42.14,42.14,0,0,0-18.93-4.34,49.21,49.21,0,0,0-20.59,4.15A46.6,46.6,0,0,0,867,475.13a51.31,51.31,0,0,0-10,16.71,57.94,57.94,0,0,0-3.51,20.22,61.21,61.21,0,0,0,3.42,20.68,49.65,49.65,0,0,0,9.79,16.71,45.15,45.15,0,0,0,15.51,11.17,49.7,49.7,0,0,0,20.41,4.06,45.14,45.14,0,0,0,20.13-4.43,38.76,38.76,0,0,0,15-12.93Z"/><path class="cls-4" d="M1095.89,512.06a71.63,71.63,0,0,1-5.26,27.79,65.89,65.89,0,0,1-14.5,21.79,65.08,65.08,0,0,1-22,14.22,77.84,77.84,0,0,1-55.31,0,64.05,64.05,0,0,1-36.29-36,77.78,77.78,0,0,1,0-55.77A62.76,62.76,0,0,1,977,462.48a65.56,65.56,0,0,1,21.88-13.94,79.18,79.18,0,0,1,55.31,0,65.39,65.39,0,0,1,22,13.94,63.91,63.91,0,0,1,14.5,21.61A72.15,72.15,0,0,1,1095.89,512.06Zm-19.76,0a58,58,0,0,0-3.51-20.22,51.41,51.41,0,0,0-10-16.71,46.62,46.62,0,0,0-15.6-11.36,52.64,52.64,0,0,0-41,0,45.65,45.65,0,0,0-15.51,11.36,52.2,52.2,0,0,0-9.88,16.71,57.92,57.92,0,0,0-3.51,20.22,59.2,59.2,0,0,0,3.51,20.5,50,50,0,0,0,10,16.71,46.3,46.3,0,0,0,15.51,11.17,49,49,0,0,0,20.31,4.06,50.35,50.35,0,0,0,20.5-4.06,45.87,45.87,0,0,0,15.7-11.17,50.11,50.11,0,0,0,10-16.71A59.29,59.29,0,0,0,1076.13,512.06Z"/><path class="cls-4" d="M1210,551.4h.37V446.88h18.28V577.62h-23.08l-69.06-106.74h-.37V577.62h-18.28V446.88h23.82Z"/><path class="cls-5" d="M1252.91,577.62V551.81l51-46.09a48.37,48.37,0,0,0,7.76-9.4,20,20,0,0,0,3-10.69,15.15,15.15,0,0,0-4.43-11.34q-4.43-4.33-11.82-4.33a16.22,16.22,0,0,0-12.65,5.45q-4.9,5.45-5.82,14.31l-29.73-4.06a46.71,46.71,0,0,1,5.45-17.76,46.11,46.11,0,0,1,11-13.28,47.42,47.42,0,0,1,15.23-8.37,56.78,56.78,0,0,1,18.19-2.88,64.27,64.27,0,0,1,17.54,2.4,45.7,45.7,0,0,1,15.14,7.39,36.89,36.89,0,0,1,10.62,12.56,37.68,37.68,0,0,1,4,17.73,40.56,40.56,0,0,1-1.85,12.65,42.09,42.09,0,0,1-5.08,10.43,60,60,0,0,1-7.39,9q-4.15,4.15-8.59,8.22l-30.29,27h53.37v27Z"/><path class="cls-5" d="M1464.09,490.09a53.31,53.31,0,0,1-4.06,21.14,122.38,122.38,0,0,1-10.52,19.3L1418,577.62h-37.46L1413,532.56l.37-.55a23,23,0,0,1-4.52,1.11,31.67,31.67,0,0,1-4.7.37,44.41,44.41,0,0,1-16.41-3,41.54,41.54,0,0,1-13.64-8.68,42,42,0,0,1-12.9-30.93,47.42,47.42,0,0,1,4.05-19.94,43.59,43.59,0,0,1,11.06-15,49,49,0,0,1,16.41-9.33,63.51,63.51,0,0,1,40,0,47.92,47.92,0,0,1,16.31,9.33,44.62,44.62,0,0,1,11,14.77A45.25,45.25,0,0,1,1464.09,490.09Zm-30.84-.37a21.43,21.43,0,0,0-5.47-14.68q-5.47-6.18-14.93-6.19t-15.12,5.82q-5.66,5.82-5.66,15.23a20.38,20.38,0,0,0,5.56,14.68q5.57,5.82,14.84,5.82t15-5.72Q1433.25,499,1433.26,489.72Z"/><polygon class="cls-6" points="0 0 727 0 -0.11 494.54 0 0"/><polygon class="cls-7" points="727 0 1031 0 0.72 494.17 727 0"/><polygon class="cls-7" points="0 1080 1920 767 1920 1080 0 1080"/><polyline class="cls-8" points="1920 263 1253 2 1846 0 1920 0"/><polygon class="cls-2" points="1227 0 1808 0 1920 248 1227 0"/><polygon class="cls-8" points="1920 682 1227 0 1920 248 1920 682"/><polygon class="cls-9" points="0 1080 0 842 1920 1080 0 1080"/></svg>